<?xml version="1.0" standalone="no"?>
<svg xmlns:xlink="http://www.w3.org/1999/xlink" id="wave" style="transform:rotate(180deg); transition: 0.3s" viewBox="0 0 1440 140" version="1.1" xmlns="http://www.w3.org/2000/svg"><defs><linearGradient id="sw-gradient-0" x1="0" x2="0" y1="1" y2="0"><stop stop-color="rgba(243, 106, 62, 1)" offset="0%"/><stop stop-color="rgba(255, 179, 11, 1)" offset="100%"/></linearGradient></defs><path style="transform:translate(0, 0px); opacity:1" fill="url(#sw-gradient-0)" d="M0,14L40,32.7C80,51,160,89,240,88.7C320,89,400,51,480,37.3C560,23,640,33,720,46.7C800,61,880,79,960,79.3C1040,79,1120,61,1200,44.3C1280,28,1360,14,1440,11.7C1520,9,1600,19,1680,39.7C1760,61,1840,93,1920,102.7C2000,112,2080,98,2160,93.3C2240,89,2320,93,2400,86.3C2480,79,2560,61,2640,51.3C2720,42,2800,42,2880,49C2960,56,3040,70,3120,67.7C3200,65,3280,47,3360,39.7C3440,33,3520,37,3600,42C3680,47,3760,51,3840,60.7C3920,70,4000,84,4080,91C4160,98,4240,98,4320,86.3C4400,75,4480,51,4560,39.7C4640,28,4720,28,4800,23.3C4880,19,4960,9,5040,7C5120,5,5200,9,5280,23.3C5360,37,5440,61,5520,79.3C5600,98,5680,112,5720,119L5760,126L5760,140L5720,140C5680,140,5600,140,5520,140C5440,140,5360,140,5280,140C5200,140,5120,140,5040,140C4960,140,4880,140,4800,140C4720,140,4640,140,4560,140C4480,140,4400,140,4320,140C4240,140,4160,140,4080,140C4000,140,3920,140,3840,140C3760,140,3680,140,3600,140C3520,140,3440,140,3360,140C3280,140,3200,140,3120,140C3040,140,2960,140,2880,140C2800,140,2720,140,2640,140C2560,140,2480,140,2400,140C2320,140,2240,140,2160,140C2080,140,2000,140,1920,140C1840,140,1760,140,1680,140C1600,140,1520,140,1440,140C1360,140,1280,140,1200,140C1120,140,1040,140,960,140C880,140,800,140,720,140C640,140,560,140,480,140C400,140,320,140,240,140C160,140,80,140,40,140L0,140Z"/></svg>